<?xml version="1.0" standalone="no"?>
<!DOCTYPE svg PUBLIC "-//W3C//DTD SVG 1.1//EN" "http://www.w3.org/Graphics/SVG/1.1/DTD/svg11.dtd" >
<svg xmlns="http://www.w3.org/2000/svg">
<metadata>Generated by IcoMoon</metadata>
<defs>
<font id="icomoon" horiz-adv-x="1024">
<font-face units-per-em="1024" ascent="960" descent="-64" />
<missing-glyph horiz-adv-x="1024" />
<glyph unicode="&#x20;" horiz-adv-x="512" d="" />
<glyph unicode="&#xe900;" glyph-name="ms_whatsapp" d="M64 0l64 240c-35.043 62.392-55.684 136.944-55.684 216.316 0 247.424 200.576 448 448 448s448-200.576 448-448c0-247.424-200.576-448-448-448-79.372 0-153.924 20.641-218.579 56.849l2.263-1.164zM320 128h16c54.55-31.565 120.005-50.191 189.809-50.191 212.077 0 384 171.923 384 384s-171.923 384-384 384c-212.077 0-384-171.923-384-384 0-69.805 18.626-135.259 51.179-191.665l-0.988 1.856-32-176zM752 304c-16-32-64-48-80-48s-16-16-144 32-192 144-192 160-48 64-48 112c1.242 38.842 19.605 73.158 47.752 95.807l0.248 0.193h48s16 0 32-16l32-80c1.348-2.295 2.144-5.054 2.144-8s-0.796-5.705-2.184-8.076l0.041 0.076h-32c-1.348-2.295-2.144-5.054-2.144-8s0.796-5.705 2.184-8.076l-0.041 0.076 64-80 96-64h32l32 48h32l80-32h16c1.473-7.733 2.315-16.628 2.315-25.719 0-25.814-6.793-50.042-18.688-70.994l0.373 0.713z" />
<glyph unicode="&#xe901;" glyph-name="ms_graphline" d="M928 112v0zM960 160h-736v736h-112v-736h-48v-112h48v-48h112v48h736v112zM352 272l-64 48c-1.348 2.295-2.144 5.054-2.144 8s0.796 5.705 2.184 8.076l-0.041-0.076 192 240c8.724 13.015 23.375 21.467 40 21.467s31.276-8.452 39.891-21.294l0.109-0.173 96-80 208 224h16l64-48c1.348-2.295 2.144-5.054 2.144-8s-0.796-5.705-2.184-8.076l0.041 0.076-240-272c-8.724-13.015-23.375-21.467-40-21.467s-31.276 8.452-39.891 21.294l-0.109 0.173-96 80-160-176h-16z" />
<glyph unicode="&#xe902;" glyph-name="ms_grid" d="M832 880h-640c-53.019 0-96-42.981-96-96v0-672c0-53.019 42.981-96 96-96v0h640c53.019 0 96 42.981 96 96v0 672c0 53.019-42.981 96-96 96v0zM832 784v-128h-640v128h640zM192 112v448h640v-448h-640zM288 496h64c17.673 0 32-14.327 32-32v-64c0-17.673-14.327-32-32-32h-64c-17.673 0-32 14.327-32 32v64c0 17.673 14.327 32 32 32zM480 496h64c17.673 0 32-14.327 32-32v-64c0-17.673-14.327-32-32-32h-64c-17.673 0-32 14.327-32 32v64c0 17.673 14.327 32 32 32zM672 496h64c17.673 0 32-14.327 32-32v-64c0-17.673-14.327-32-32-32h-64c-17.673 0-32 14.327-32 32v64c0 17.673 14.327 32 32 32zM288 320h64c17.673 0 32-14.327 32-32v-64c0-17.673-14.327-32-32-32h-64c-17.673 0-32 14.327-32 32v64c0 17.673 14.327 32 32 32zM480 320h64c17.673 0 32-14.327 32-32v-64c0-17.673-14.327-32-32-32h-64c-17.673 0-32 14.327-32 32v64c0 17.673 14.327 32 32 32zM672 320h64c17.673 0 32-14.327 32-32v-64c0-17.673-14.327-32-32-32h-64c-17.673 0-32 14.327-32 32v64c0 17.673 14.327 32 32 32z" />
<glyph unicode="&#xe903;" glyph-name="ms_contact" d="M880 544v0c0 203.241-164.759 368-368 368s-368-164.759-368-368v0 0c-44.183 0-80-35.817-80-80v0-128c0-44.183 35.817-80 80-80v0h112v288h-48c0 167.895 136.105 304 304 304s304-136.105 304-304v0h-48v-288h48v-64c0-53.019-42.981-96-96-96v0h-128c0 17.673-14.327 32-32 32v0h-112c-17.673 0-32-14.327-32-32v0-48c0-17.673 14.327-32 32-32v0h272c0.238-0.001 0.52-0.002 0.802-0.002 88.366 0 160 71.634 160 160 0 5.636-0.291 11.203-0.86 16.689l0.058-0.687v64c44.183 0 80 35.817 80 80v0 128c0 44.183-35.817 80-80 80v0zM272 560v0c26.51 0 48-21.49 48-48v0-224c0-26.51-21.49-48-48-48v0 0 320zM752 560v0-320c-26.51 0-48 21.49-48 48v0 224c0 26.51 21.49 48 48 48v0z" />
<glyph unicode="&#xe904;" glyph-name="ms_facebook" d="M656 736h64v160h-64c-132.548 0-240-107.452-240-240v0-96h-144v-160h144v-400h160v400h144v160h-144v96c0 44.183 35.817 80 80 80v0z" />
<glyph unicode="&#xe905;" glyph-name="ms_flickr" d="M784 880h-544c-88.366 0-160-71.634-160-160v0-544c0-88.366 71.634-160 160-160v0h544c88.366 0 160 71.634 160 160v0 544c0 88.366-71.634 160-160 160v0zM336 304c-79.529 0-144 64.471-144 144s64.471 144 144 144c79.529 0 144-64.471 144-144v0c0-79.529-64.471-144-144-144v0zM704 304c-79.529 0-144 64.471-144 144s64.471 144 144 144c79.529 0 144-64.471 144-144v0c0-79.529-64.471-144-144-144v0z" />
<glyph unicode="&#xe906;" glyph-name="ms_googleplus" d="M560 832h-272l-96-32c-48-32-112-96-64-224s176-112 176-96-16-32 0-48l32-48-160-48c-64-16-112-80-112-144s64-128 160-128 208-16 288 80c23.875 27.784 38.411 64.195 38.411 104s-14.536 76.216-38.589 104.212l0.178-0.212-96 80c-4.043 6.885-6.431 15.163-6.431 24s2.388 17.115 6.553 24.227l-0.123-0.227c16 16 80 64 96 112 2.895 12.492 4.554 26.837 4.554 41.569 0 31.522-7.596 61.269-21.058 87.512l0.504-1.081-48 48h64zM432 288c32-32 48-48 48-96s-32-112-176-96-160 96-160 112 0 48 64 96 160 32 160 32zM352 512c-64-16-112 0-144 112s0 144 48 160 112 0 144-96 16-160-48-176zM960 688v-64h-144v-144h-64v144h-144v64h144v144h64v-144h144z" />
<glyph unicode="&#xe907;" glyph-name="ms_instagram" d="M720 448c0-114.875-93.125-208-208-208s-208 93.125-208 208c0 114.875 93.125 208 208 208s208-93.125 208-208zM928 768c-6.941 49.978-46.023 89.059-95.412 95.933l-0.588 0.067c-95.879 8.916-207.346 14.001-320 14.001s-224.121-5.084-334.184-15.035l14.184 1.035c-49.978-6.941-89.059-46.023-95.933-95.412l-0.067-0.588c-8.916-95.879-14.001-207.346-14.001-320s5.084-224.121 15.035-334.184l-1.035 14.184c6.941-49.978 46.023-89.059 95.412-95.933l0.588-0.067c93.468-8.476 202.17-13.308 312-13.308s218.532 4.832 325.904 14.296l-13.904-0.988c49.978 6.941 89.059 46.023 95.933 95.412l0.067 0.588c14.74 123.41 23.149 266.334 23.149 411.221 0 80.491-2.595 160.376-7.707 239.575l0.558-10.796zM512 192c-141.385 0-256 114.615-256 256s114.615 256 256 256c141.385 0 256-114.615 256-256v0c0-141.385-114.615-256-256-256v0zM752 672c-17.673 0-32 14.327-32 32s14.327 32 32 32c17.673 0 32-14.327 32-32v0c0-17.673-14.327-32-32-32v0z" />
<glyph unicode="&#xe908;" glyph-name="ms_linkedin" d="M304 80v496h-176v-496h176zM224 640c64 0 96 32 96 80s-32 80-96 80-96-32-96-80c-0.010-0.482-0.016-1.050-0.016-1.62 0-44.183 35.817-80 80-80 5.67 0 11.201 0.59 16.537 1.711l-0.521-0.092zM384 80h160v272c-0.731 4.808-1.149 10.355-1.149 16s0.418 11.192 1.224 16.613l-0.075-0.613c13.533 37.686 48.958 64.154 90.564 64.154 1.912 0 3.812-0.056 5.696-0.166l-0.26 0.012c64 0 80-48 80-112v-256h176v288c0 144-96 224-192 224-1.605 0.058-3.49 0.091-5.384 0.091-58.947 0-110.449-31.877-138.207-79.334l-0.409-0.757v64h-176c0-48 0-496 0-496v0z" />
<glyph unicode="&#xe909;" glyph-name="ms_mail" d="M544 432v0l400 304c14.464 3.705 24.985 16.624 24.985 32 0 18.217-14.768 32.985-32.985 32.985-2.841 0-5.598-0.359-8.229-1.035l0.229 0.050h-832c-2.402 0.626-5.159 0.985-8 0.985-18.217 0-32.985-14.768-32.985-32.985 0-15.376 10.521-28.295 24.756-31.95l0.229-0.050 384-304c10.853-8.747 24.808-14.040 40-14.040s29.147 5.293 40.123 14.136l-0.123-0.096zM592 368l-80-32-80 32-368 288v-560c0-26.51 21.49-48 48-48v0h800c26.51 0 48 21.49 48 48v0 576z" />
<glyph unicode="&#xe90a;" glyph-name="ms_skype" d="M912 352c7.454 28.875 11.733 62.024 11.733 96.172 0 220.914-179.086 400-400 400-4.126 0-8.238-0.062-12.334-0.187l0.6 0.014h-80l-112 32c-130.71-2.385-235.756-108.906-235.756-239.962 0-40.984 10.273-79.569 28.385-113.32l-0.629 1.283c-5.149-24.075-8.098-51.734-8.098-80.082 0-220.914 179.086-400 400-400 2.848 0 5.688 0.030 8.522 0.089l-0.423-0.007h80l112-32c127.356 6.483 228.164 111.323 228.164 239.708 0 34.837-7.422 67.941-20.772 97.815l0.608-1.523zM512 224c-96 0-176 48-192 112-0.421 2.405-0.662 5.174-0.662 8 0 26.875 21.787 48.662 48.662 48.662 24.050 0 44.025-17.446 47.959-40.373l0.041-0.289c0-16 48-48 96-48s96 32 96 48-32 48-96 48-176 64-176 144 80 144 176 144 160-48 176-112c0.421-2.405 0.662-5.174 0.662-8 0-26.875-21.787-48.662-48.662-48.662-24.050 0-44.025 17.446-47.959 40.373l-0.041 0.289c0 16-32 32-80 32s-80-32-80-48 32-48 80-48 192-64 192-144-80-128-192-128z" />
<glyph unicode="&#xe90b;" glyph-name="ms_twitter" d="M960 624h-112c96 64 80 64 80 80l-112-32c-48 80-112 144-240 112v0c-49.23-16.339-88.723-50.627-111.496-94.922l-0.504-1.078c-10.8-34.546-17.021-74.267-17.021-115.442 0-10.049 0.371-20.012 1.099-29.876l-0.078 1.318c-80 16-96-16-336 160 0 0 16-144 64-208s-48 32-48 16 64-128 128-144h-64c0-16 32-96 176-128-48-64-176-96-304-64h16c368-208 800-32 768 400 112 0 112 64 112 48z" />
<glyph unicode="&#xe90c;" glyph-name="ms_youtube" d="M928 688c0 64-64 128-128 128h-576c-64 0-128-64-128-128-7.434-74.341-11.674-160.675-11.674-248s4.24-173.659 12.525-258.809l-0.851 10.809c0-64 64-128 128-128h576c64 0 128 64 128 128 7.434 74.341 11.674 160.675 11.674 248s-4.24 173.659-12.525 258.809l0.851-10.809zM400 224v432l304-208z" />
<glyph unicode="&#xe90d;" glyph-name="ic_store_mall_directory_24px" d="M853.333 789.333h-682.667v-85.333h682.667v85.333zM896 362.667v85.333l-42.667 213.333h-682.667l-42.667-213.333v-85.333h42.667v-256h426.667v256h170.667v-256h85.333v256h42.667zM512 192h-256v170.667h256v-170.667z" />
<glyph unicode="&#xe90e;" glyph-name="icoBarra_Adicionar" d="M512 943.909c-274.042 0-495.909-221.867-495.909-495.909s221.867-495.909 495.909-495.909c274.042 0 495.909 221.867 495.909 495.909s-221.867 495.909-495.909 495.909zM823.101 398.75h-257.95v-257.95h-105.813v257.95h-257.95v105.813h257.95v257.95h105.813v-257.95h257.95v-105.813z" />
<glyph unicode="&#xe90f;" glyph-name="icoBarra_AreaUsuario" d="M512 943.909c-274.042 0-495.909-221.867-495.909-495.909s221.867-495.909 495.909-495.909c274.042 0 495.909 221.867 495.909 495.909s-221.867 495.909-495.909 495.909zM373.516 653.288c0 63.39 61.44 127.756 137.509 127.756h19.992c76.069 0 137.509-64.853 137.509-127.756v-91.672c0-63.39-61.44-146.286-137.509-146.286h-19.992c-76.069 0-137.509 82.895-137.509 146.286v91.672zM253.074 164.206v142.872c0 27.794 19.017 52.663 51.2 62.903l120.93 28.282c25.356-16.091 53.638-26.819 84.358-26.819h23.406c31.208 0 59.49 10.728 85.333 27.307l120.442-28.282c27.794-10.728 51.2-35.109 51.2-62.903v-142.872h-536.869z" />
<glyph unicode="&#xe910;" glyph-name="icoBarra_Chat" d="M512 943.909c-274.042 0-495.909-221.867-495.909-495.909s221.867-495.909 495.909-495.909c274.042 0 495.909 221.867 495.909 495.909s-221.867 495.909-495.909 495.909zM600.747 297.813l-85.821-156.526-85.821 156.526c-117.516 16.579-206.75 99.962-206.75 200.411 0 112.64 112.152 203.825 250.149 203.825h84.358c137.996 0 250.149-91.185 250.149-203.825 0.488-100.45-88.747-183.832-206.263-200.411z" />
<glyph unicode="&#xe911;" glyph-name="icoBarra_Configuracoes" d="M512 943.909c-274.042 0-495.909-221.867-495.909-495.909s221.867-495.909 495.909-495.909c274.042 0 495.909 221.867 495.909 495.909s-221.867 495.909-495.909 495.909zM738.743 445.074c0-9.265-1.463-18.042-2.926-26.819h1.463l85.821-25.844c-8.29-49.25-27.307-95.086-55.589-134.095l-79.97 43.398c-11.215-14.141-23.893-26.819-38.034-38.034v0l43.398-79.97c-39.010-27.794-84.358-47.299-134.095-55.589l-26.331 87.284c-8.777-0.975-17.554-2.926-26.819-2.926s-18.042 1.463-26.819 2.926v0l-25.356-87.284c-49.25 8.29-94.598 27.307-133.608 55.589l43.398 79.97c-14.141 11.215-26.819 23.893-38.034 38.034v0l-79.97-42.91c-27.794 39.010-47.299 84.358-55.589 133.608l87.284 26.331c-0.975 8.777-2.926 17.554-2.926 26.819s1.463 18.042 2.926 26.819v0l-87.771 25.844c8.29 49.25 27.307 95.086 55.589 134.095l78.994-42.91 0.975-0.975c11.215 14.141 23.893 26.819 38.034 38.034l-0.975 0.975-42.423 78.994c39.010 27.794 84.846 47.299 134.095 55.589l25.844-85.821v-1.463c8.777 0.975 17.554 2.926 26.819 2.926s18.042-1.463 26.819-2.926v1.463l25.844 85.821c49.737-8.29 95.086-27.307 134.095-55.589l-42.423-78.994-0.975-0.975c14.141-11.215 26.819-23.893 38.034-38.034l0.975 0.975 78.994 42.423c27.794-39.010 47.299-84.846 55.589-134.095l-85.821-25.844h-1.463c0.975-8.777 2.926-17.554 2.926-26.819zM588.069 441.661c0-47.128-38.205-85.333-85.333-85.333s-85.333 38.205-85.333 85.333c0 47.128 38.205 85.333 85.333 85.333s85.333-38.205 85.333-85.333z" />
<glyph unicode="&#xe912;" glyph-name="icoBarra_Editar" d="M512 943.909c-274.042 0-495.909-221.867-495.909-495.909s221.867-495.909 495.909-495.909c274.042 0 495.909 221.867 495.909 495.909s-221.867 495.909-495.909 495.909zM188.709 556.739l206.75 206.75 284.282-284.282-206.75-206.75-284.282 284.282zM511.025 235.398l-0.488-0.488-0.488 0.488 206.75 206.75 0.488-0.488-0.488-0.488 69.242-275.017-275.017 69.242z" />
<glyph unicode="&#xe913;" glyph-name="icoBarra_Excluir" d="M512 943.909c-274.042 0-495.909-221.867-495.909-495.909s221.867-495.909 495.909-495.909c274.042 0 495.909 221.867 495.909 495.909s-221.867 495.909-495.909 495.909zM704.122 186.636h-384.244v376.93h384.244v-376.93zM727.040 634.758h-430.080v65.341h167.741v55.101h94.11v-55.101h167.741v-65.341zM403.261 497.737h42.91v-253.562h-42.91v253.562zM567.589 497.737h42.91v-253.562h-42.91v253.562z" />
<glyph unicode="&#xe914;" glyph-name="icoBarra_Faq" d="M512 943.909c-274.042 0-495.909-221.867-495.909-495.909s221.867-495.909 495.909-495.909c274.042 0 495.909 221.867 495.909 495.909s-221.867 495.909-495.909 495.909zM507.611 72.046c-44.373 0-80.457 36.084-80.457 80.457s36.084 80.457 80.457 80.457c44.373 0 80.457-36.084 80.457-80.457s-35.596-80.457-80.457-80.457zM619.276 411.916c-3.901-2.438-8.777-4.876-14.141-7.802-26.331-14.141-50.712-35.109-50.712-87.771 0-26.819-21.943-48.762-48.762-48.762s-48.762 21.943-48.762 48.762c0 111.177 72.168 157.501 101.912 173.592 3.413 1.95 6.339 3.413 8.777 4.876 58.514 36.084 58.514 69.242 58.514 79.97 0 59.002-51.2 107.276-114.59 107.276s-114.59-48.274-114.59-107.276c0-26.819-21.943-48.762-48.762-48.762s-48.762 21.943-48.762 48.762c0 112.64 95.086 204.8 212.114 204.8s212.114-91.672 212.114-204.8c0.488-44.861-17.554-109.227-104.35-162.865z" />
<glyph unicode="&#xe915;" glyph-name="icoBarra_Home" d="M512 943.909c-274.042 0-495.909-221.867-495.909-495.909s221.867-495.909 495.909-495.909c274.042 0 495.909 221.867 495.909 495.909s-221.867 495.909-495.909 495.909zM741.181 466.53v-245.76h-177.493v111.177h-103.375v-111.177h-177.981v245.76h-126.781l356.45 286.232 356.45-286.232h-127.269z" />
<glyph unicode="&#xe916;" glyph-name="icoBarra_Pagina" d="M512 945.371c-273.067 0-497.371-224.305-497.371-497.371s224.305-497.371 497.371-497.371c273.067 0 497.371 224.305 497.371 497.371s-224.305 497.371-497.371 497.371zM614.4 672.305l82.895-82.895h-82.895v82.895zM726.552 199.314h-429.105v497.371h273.067v-151.162h156.038v-346.21z" />
<glyph unicode="&#xe917;" glyph-name="icoBarra_Recados" d="M512 943.909c-274.042 0-495.909-221.867-495.909-495.909s221.867-495.909 495.909-495.909c274.042 0 495.909 221.867 495.909 495.909s-221.867 495.909-495.909 495.909zM812.373 668.891l-304.274-237.958-290.133 237.958h594.408zM821.638 255.878h-610.499v325.242l296.96-243.322 314.027 245.76v-327.68z" />
<glyph unicode="&#xe918;" glyph-name="icoBarra_Simulador" d="M512 943.909c-274.042 0-495.909-221.867-495.909-495.909s221.867-495.909 495.909-495.909c274.042 0 495.909 221.867 495.909 495.909s-221.867 495.909-495.909 495.909zM735.817 125.684h-463.238v631.467h463.238v-631.467zM539.307 194.926c0-7.314-5.851-13.166-13.166-13.166h-43.886c-7.314 0-13.166 5.851-13.166 13.166v0c0 7.314 5.851 13.166 13.166 13.166h43.398c7.802 0 13.653-5.851 13.653-13.166v0zM442.758 603.063h122.88v-79.482h-122.88v79.482zM342.796 682.057v-437.882h322.804v437.882h-322.804zM406.187 639.634h196.023v-152.625h-196.023v152.625zM603.185 313.417h-197.973v36.571h197.973v-36.571zM603.185 395.825h-197.973v36.571h197.973v-36.571z" />
<glyph unicode="&#xe919;" glyph-name="icoBarra_Suporte" d="M512 943.909c-274.042 0-495.909-221.867-495.909-495.909s221.867-495.909 495.909-495.909c274.042 0 495.909 221.867 495.909 495.909s-221.867 495.909-495.909 495.909zM821.15 393.874l-33.158-120.93c-4.389-15.604-23.893-24.381-43.886-19.017-1.463 0.488-2.438 0.975-3.413 1.463-11.215-13.166-34.133-19.017-57.539-12.678-29.745 8.29-48.762 32.183-42.91 53.638l44.861 164.328c2.438 8.777 9.265 15.116 18.042 19.992-10.24 110.69-93.135 197.973-195.535 197.973-100.937 0-183.345-85.333-195.048-194.072 13.166-3.901 23.406-12.19 26.819-23.893l44.861-164.328c5.851-21.455-13.166-45.836-42.91-53.638-1.95-0.488-4.389-0.488-6.339-0.975 2.926-8.29 7.314-17.067 16.091-23.893 28.282-22.43 74.118-25.844 104.838-25.844 7.802 15.604 21.455 27.794 39.985 30.72l30.72 5.851c30.232 5.364 59.002-15.116 64.366-45.836 5.364-30.232-15.116-59.002-45.836-64.366l-31.208-5.364c-19.992-3.413-39.010 5.364-51.2 19.505-0.975 0-1.463 0-1.95 0-37.547 0-101.425 2.926-146.773 39.010-30.232 23.893-39.985 55.589-41.448 81.432-17.067-1.95-32.67 5.851-36.571 19.505l-33.158 120.93c-4.389 16.091 8.29 33.158 28.282 38.522 0 0 0 0 0.488 0-1.463 5.851-0.488 11.703 1.463 17.554 0 2.926-0.488 6.339-0.488 9.265 0 164.328 123.368 297.448 275.017 297.448 149.699 0 271.604-130.194 274.53-291.596 8.29-9.752 12.678-21.455 10.24-32.67 0 0 0 0 0.488 0 19.992-4.876 32.67-21.943 28.282-38.034z" />
<glyph unicode="&#xe91a;" glyph-name="icoBarra_VisualizarPagina" d="M512 943.909c-274.042 0-495.909-221.867-495.909-495.909s221.867-495.909 495.909-495.909c274.042 0 495.909 221.867 495.909 495.909s-221.867 495.909-495.909 495.909zM234.545 209.067v506.149h506.149v-173.105c-13.653 21.455-31.695 34.621-54.613 47.299v71.192h-396.922v-396.434h78.019c10.24-19.992 27.307-39.010 47.299-54.613h-179.931zM807.010 133.973c-8.777-8.29-19.992-12.19-30.72-12.19-11.703 0-23.893 4.876-32.67 14.141l-93.623 98.499c-25.844-14.629-55.589-23.406-87.284-23.406-99.474 0-180.419 80.945-180.419 180.419s80.945 180.419 180.419 180.419c99.474 0 180.419-80.945 180.419-180.419 0-34.621-10.24-67.291-27.307-94.598l93.623-98.499c16.579-18.53 15.604-47.299-2.438-64.366zM658.286 390.461c0-52.784-42.79-95.573-95.573-95.573s-95.573 42.79-95.573 95.573c0 52.784 42.79 95.573 95.573 95.573s95.573-42.79 95.573-95.573z" />
<glyph unicode="&#xe91b;" glyph-name="icoLoading" d="M807.010 750.811h44.861v136.046h-679.741v-136.046h44.861c2.926-127.269 58.027-240.396 145.798-302.811-87.771-62.415-142.872-176.030-145.798-302.811h-44.861v-136.046h679.741v136.046h-44.861c-3.413 127.269-58.514 240.396-145.798 302.811 87.771 62.415 142.872 176.030 145.798 302.811zM596.358 423.619c91.185-43.886 152.625-155.063 156.526-278.43h-58.027c0 0-96.061 84.846-157.501 103.863 6.827 6.827 11.215 16.091 11.215 26.331 0 19.992-15.116 36.084-34.133 36.084s-34.133-16.091-34.133-36.084c0-10.728 4.876-20.48 12.19-27.307-62.415-19.992-159.451-103.375-159.451-103.375h-61.928c3.901 123.855 65.341 235.032 156.526 278.918l50.712 24.381-50.712 24.381c-91.185 43.886-152.625 155.063-156.526 278.43h481.28c-3.413-123.368-64.853-234.545-156.038-278.43l-50.712-24.381 50.712-24.381zM548.084 382.659c0-19.929-15.282-36.084-34.133-36.084s-34.133 16.155-34.133 36.084c0 19.929 15.282 36.084 34.133 36.084s34.133-16.155 34.133-36.084zM672.914 650.85c-44.861-23.893-100.45-32.67-159.939-32.67s-113.615 9.265-158.476 32.67c17.067-88.259 81.92-154.575 159.451-154.575 77.044 0 141.41 65.829 158.964 154.575z" />
<glyph unicode="&#xe91c;" glyph-name="icoMenu_Abrir" d="M512 943.909c-274.042 0-495.909-221.867-495.909-495.909s221.867-495.909 495.909-495.909c274.042 0 495.909 221.867 495.909 495.909s-221.867 495.909-495.909 495.909zM508.099 275.87l-207.238 287.208h414.476l-207.238-287.208z" />
<glyph unicode="&#xe91d;" glyph-name="icoMenu_AdicionarComponente" d="M844.556 486.522v260.389h-3.413l0.975 2.926-391.558 152.625-392.533-152.625 0.975-2.926v-500.785l-1.95-4.876 1.95-0.975v-1.463h3.413l382.781-153.6 1.463 3.901 1.95-4.389 36.571 14.141c49.25-63.878 125.806-105.813 213.090-105.813 148.236 0 268.19 119.954 268.19 268.19 0 94.598-48.274 177.493-121.905 225.28zM450.56 839.558l302.811-118.004-299.886-116.053-302.811 117.516 299.886 116.541zM422.766 157.867l-304.762 122.392v392.533l304.762-118.004v-396.922zM481.28 418.743v134.583l304.762 118.004v-156.526c-27.307 9.752-57.051 15.116-87.771 15.116-89.234 0-168.229-43.886-216.99-111.177zM866.499 235.398h-139.459v-139.459h-57.051v139.459h-139.459v57.051h139.459v139.459h57.051v-139.459h139.459v-57.051z" />
<glyph unicode="&#xe91e;" glyph-name="icoMenu_AdicionarPagina" d="M785.067 499.2v185.783l-223.817 223.817h-478.842v-799.695h366.202c47.787-73.63 130.682-122.392 224.792-122.392 148.236 0 268.19 119.954 268.19 268.19 0 108.739-64.366 201.874-156.526 244.297zM570.027 817.128l115.566-115.566h-115.566v115.566zM405.211 255.39c0-30.72 5.364-59.977 14.629-87.284h-278.918v682.667h371.078v-207.726h214.552v-124.83c-17.067 3.413-34.621 5.364-52.663 5.364-148.236 0-268.678-119.954-268.678-268.19zM841.63 228.571h-139.459v-139.459h-57.051v139.459h-139.459v57.051h139.459v139.459h57.051v-139.459h139.459v-57.051z" />
<glyph unicode="&#xe91f;" glyph-name="icoMenu_AgendadorTarefas" d="M784.579 791.284v77.531h-133.608v-77.531h-278.918v73.143h-133.12v-73.143h-109.227v-764.099h764.099v764.099h-109.227zM709.486 810.301h16.579v-86.796h-16.579v86.796zM297.448 806.4h16.579v-86.796h-16.579v86.796zM238.933 732.77v-72.168h133.608v72.168h278.918v-67.779h133.608v67.779h50.712v-130.682h-647.558v130.682h50.712zM188.221 85.699v457.874h647.070v-457.874h-647.070zM398.872 428.495h341.333v-58.514h-341.333v58.514zM398.872 330.971h341.333v-58.514h-341.333v58.514zM398.872 233.448h341.333v-58.514h-341.333v58.514zM283.307 428.495h60.952v-58.514h-60.952v58.514zM283.307 330.971h60.952v-58.514h-60.952v58.514zM283.307 233.448h60.952v-58.514h-60.952v58.514z" />
<glyph unicode="&#xe920;" glyph-name="icoMenu_Ajuda" d="M512 943.909c-274.042 0-495.909-221.867-495.909-495.909s221.867-495.909 495.909-495.909c274.042 0 495.909 206.75 495.909 480.792s-221.867 511.025-495.909 511.025zM559.787 132.51h-124.83v124.83h124.83v-124.83zM652.434 438.735c-30.72-29.745-67.779-45.349-109.714-45.349-0.488 0-0.975 0-0.975 0l-1.95-90.697h-84.358l-0.975 185.295 13.653-1.95c14.141-1.95 25.356-2.926 37.059-2.926 29.257 0 58.027 10.728 72.655 27.794 10.24 11.703 16.091 37.059 16.091 69.73 0 25.356-7.314 44.861-21.943 58.514-14.629 14.141-33.158 20.48-56.564 20.48-27.794 0.975-47.787-6.827-60.952-22.43-13.653-16.091-20.48-35.596-20.48-59.977 0-5.364 0-12.19 0.488-19.505l0.488-12.678h-100.937l-0.488 11.703c0 7.314-0.488 13.653-0.488 19.017 0 59.49 18.53 104.35 54.126 133.12 35.109 28.282 77.531 42.423 125.806 42.423 58.027 0 103.863-16.091 136.533-47.787s49.25-74.118 49.25-125.318c0-43.398-12.19-105.813-46.324-139.459z" />
<glyph unicode="&#xe921;" glyph-name="icoMenu_AlterarLayout" d="M296.472 190.050h53.638v-58.514h-53.638v58.514zM188.709 190.050h53.638v-58.514h-53.638v58.514zM76.556 190.050h58.514v-58.514h-58.514v58.514zM76.556 764.952h58.514v-57.539h-58.514v57.539zM76.556 420.206h58.514v-57.539h-58.514v57.539zM76.556 534.796h58.514v-57.539h-58.514v57.539zM76.556 305.128h58.514v-57.539h-58.514v57.539zM76.556 649.874h58.514v-57.539h-58.514v57.539zM76.556 881.006h58.514v-58.514h-58.514v58.514zM188.709 881.006h53.638v-58.514h-53.638v58.514zM511.512 881.006h53.638v-58.514h-53.638v58.514zM619.276 881.006h53.638v-58.514h-53.638v58.514zM296.472 881.006h53.638v-58.514h-53.638v58.514zM404.236 881.006h53.638v-58.514h-53.638v58.514zM726.552 881.006h58.514v-58.514h-58.514v58.514zM726.552 764.952h58.514v-57.539h-58.514v57.539zM726.552 649.874h58.514v-57.539h-58.514v57.539zM636.83 638.171h53.15v-58.514h-53.15v58.514zM519.802 638.171h58.514v-58.514h-58.514v58.514zM402.773 638.171h58.514v-58.514h-58.514v58.514zM168.716 638.171h58.514v-58.514h-58.514v58.514zM285.745 638.171h58.514v-58.514h-58.514v58.514zM280.869 298.789h58.514v-58.514h-58.514v58.514zM280.869 415.817h58.514v-58.514h-58.514v58.514zM280.869 532.846h58.514v-58.514h-58.514v58.514zM785.067 529.432v5.364h-14.141c-28.77 10.24-59.49 16.579-91.672 16.579-148.236 0-268.19-119.954-268.19-268.19 0-32.67 6.339-63.878 17.067-93.135h-23.893v-58.514h53.638v0.488c48.274-70.705 129.219-117.029 221.379-117.029 148.236 0 268.19 119.954 268.19 268.19 0 110.69-66.804 205.288-162.377 246.248zM504.198 342.187l111.665 112.152 154.088-154.088-111.665-111.665-154.088 153.6zM678.766 168.107v0h-0.488l111.665 111.665 0.488-0.488-0.488-0.488 37.547-147.749-148.724 37.059z" />
<glyph unicode="&#xe922;" glyph-name="icoMenu_AlterarProjeto" d="M814.324 489.448v428.617h-325.242v-509.074c-6.339-7.802-11.703-16.091-17.067-24.869l-418.377 418.377v-740.693h453.973c48.762-51.2 118.004-83.87 194.56-83.87 148.236 0 268.19 119.954 268.19 268.19 0 108.251-63.878 200.899-156.038 243.322zM527.116 305.128l111.665 112.152 154.088-154.088-111.665-111.665-154.088 153.6zM541.257 532.846v50.712h92.648v43.398h-92.648v50.712h41.935v43.398h-41.935v48.762h92.648v43.398h-92.648v52.663h221.379v-358.4c-19.505 4.389-39.497 6.827-59.977 6.827-60.465 0-116.053-20.48-160.914-54.126v29.257h41.935v43.398h-42.423zM105.813 113.981v562.712l61.44-61.44-21.455-21.455 30.72-30.72 21.455 21.455 34.621-34.621-21.455-21.455 30.72-30.72 21.455 21.455 34.133-34.621-21.455-21.455 30.72-30.72 21.455 21.455 34.621-34.621-21.455-20.968 30.72-30.72 21.455 21.455 34.621-34.621-21.455-21.455 30.72-30.72 3.413 3.413c-4.389-19.017-6.827-39.010-6.827-59.49 0-10.728 0.975-21.943 1.95-32.183l-254.050 258.438v-272.091h256.488c5.364-30.72 16.091-59.977 30.72-86.309h-363.276zM325.242 251.977h-91.185v92.648l91.185-92.648zM701.684 131.535v0h-0.488l111.665 111.665 0.488-0.488-0.488-0.488 37.547-148.724-148.724 38.034z" />
<glyph unicode="&#xe923;" glyph-name="icoMenu_AlterarTema" d="M756.297 512.853v22.918c0 10.728-4.389 19.992-11.215 28.282-6.339 196.023-160.914 353.524-351.086 353.524s-345.234-157.989-351.086-354.011c-7.802-9.265-12.19-19.992-11.215-31.208l1.463-30.232c1.463-27.794 29.257-47.787 66.316-49.25v-400.335h440.32c48.274-45.836 113.128-74.606 185.295-74.606 148.236 0 268.19 119.954 268.19 268.19-0.488 137.509-103.863 250.636-236.983 266.728zM627.078 496.274c-5.364-1.95-10.728-4.389-16.091-6.827 4.389 10.24 8.29 21.455 16.091 29.745v-22.918zM707.048 535.771l0.975-21.943c-7.802-0.488-15.604-1.463-22.918-2.438v27.794c13.166-0.975 21.455-4.876 21.943-3.413zM393.996 878.568c161.402 0 294.522-128.244 310.613-292.571-3.413 0.975-6.827 1.463-10.24 1.95-17.067 156.038-144.823 277.943-300.373 277.943-156.038 0-284.77-122.392-300.861-279.406-2.926-0.488-6.827-0.975-9.752-1.463 15.604 164.815 149.211 293.547 310.613 293.547zM98.987 500.663c-10.728 0.488-18.042 3.901-18.53 3.413l-1.95 27.794c0.975 1.95 8.777 5.851 20.968 7.314v-38.522zM393.996 826.88c130.194 0 238.933-98.987 259.413-228.206h-518.827c20.968 129.219 129.219 228.206 259.413 228.206zM157.013 234.91c38.522-14.629 70.217 37.059 60.952 75.093-13.653 57.051-10.728 86.796 18.042 97.524 21.943 8.29 39.497-8.777 19.992-69.242-9.752-30.72 19.992-64.853 41.448-60.952 20.48 3.901 56.564 22.43 38.522 74.118-16.091 46.324-10.728 129.219 26.819 126.781 15.116-0.975 32.183-20.968 29.745-56.076-2.438-24.381-2.438-83.383 44.861-71.192 20.48 5.364 38.522 33.646 23.893 73.143-20.968 54.613 3.413 87.284 31.695 93.623 60.952 12.678 43.886-46.811 70.217-57.051-64.853-48.762-107.276-126.293-107.276-214.065 0-49.737 13.653-96.061 37.547-136.046h-336.457v124.343zM549.547 305.128l111.665 112.152 154.088-154.088-111.665-111.665-154.088 153.6zM724.114 131.535v0h-0.488l111.665 111.665 0.488-0.488-0.488-0.488 37.547-148.724-148.724 38.034z" />
<glyph unicode="&#xe924;" glyph-name="icoMenu_Categorias" d="M719.726 829.806v-207.238h-62.903v207.238h-243.81v-207.238h-68.267v207.726h-284.282v-764.099h903.070v763.611h-243.81zM471.528 771.291h126.781v-148.724h-126.781v148.724zM905.021 124.709h-786.042v647.070h167.253v-207.726h618.301v-439.345zM778.24 622.568v148.724h126.781v-148.724h-126.781z" />
<glyph unicode="&#xe925;" glyph-name="icoMenu_Compartilhar" d="M750.933 335.848c-58.514 0-112.152-29.257-151.162-73.143l-165.79 97.524c19.505 29.257 29.257 63.39 29.257 102.4 0 24.381-4.876 48.762-14.629 73.143l156.038 87.771c34.133-39.010 87.771-68.267 141.41-68.267 107.276 0 190.171 87.771 190.171 190.171s-87.771 190.171-190.171 190.171-190.171-87.771-190.171-190.171c0-24.381 4.876-48.762 14.629-73.143l-156.038-78.019c-34.133 39.010-82.895 63.39-141.41 63.39-107.276 0-190.171-87.771-190.171-190.171s87.771-190.171 190.171-190.171c43.886 0 82.895 14.629 117.029 43.886l180.419-107.276c-4.876-19.505-9.752-39.010-9.752-63.39 0-107.276 87.771-190.171 190.171-190.171s190.171 87.771 190.171 190.171-82.895 185.295-190.171 185.295zM750.933 877.105c68.267 0 126.781-58.514 126.781-126.781s-58.514-126.781-126.781-126.781-126.781 58.514-126.781 126.781 58.514 126.781 126.781 126.781zM273.067 335.848c-68.267 0-126.781 58.514-126.781 126.781s58.514 126.781 126.781 126.781 126.781-58.514 126.781-126.781-58.514-126.781-126.781-126.781zM750.933 18.895c-68.267 0-126.781 58.514-126.781 126.781s58.514 126.781 126.781 126.781 126.781-58.514 126.781-126.781-58.514-126.781-126.781-126.781z" />
<glyph unicode="&#xe926;" glyph-name="icoMenu_Componentes" d="M905.509 701.074h-3.413l0.975 2.926-392.046 152.625-391.558-152.625 0.975-2.926v-500.785l-1.95-4.876 1.95-0.975v-1.463h3.413l382.781-153.6 1.463 3.901 1.95-4.389 394.484 151.162-0.975 2.438h1.95v508.587zM483.718 112.030l-304.762 122.392v392.533l304.762-118.004v-396.922zM542.232 507.49l304.762 118.004v-394.484l-304.762-116.541v393.021zM814.324 675.718l-299.398-116.053-303.299 117.516 299.886 116.541 302.811-118.004z" />
<glyph unicode="&#xe927;" glyph-name="icoMenu_Concluir" d="M512 943.909c-274.042 0-495.909-221.867-495.909-495.909s221.867-495.909 495.909-495.909c274.042 0 495.909 221.867 495.909 495.909s-221.867 495.909-495.909 495.909zM420.815 193.95l-3.413 3.901-241.859 254.537 76.556 72.655 172.617-181.882 331.093 314.514 73.143-76.556-408.137-387.17z" />
<glyph unicode="&#xe928;" glyph-name="icoMenu_ConfiguracoesGlobais" d="M551.010 53.516l-29.745 100.45c-6.339-0.488-12.19-0.488-18.53 0l-29.745-100.45-25.356 4.389c-59.49 9.752-114.103 33.158-162.865 68.267l-20.48 15.116 49.737 93.623c-4.389 4.389-8.777 8.29-12.678 12.678l-92.16-50.225-15.116 21.455c-34.621 48.762-57.539 105.326-67.291 164.815l-4.876 24.381 99.474 30.232c-0.488 3.413-0.488 6.827-0.488 9.752s0 5.851 0.488 9.752l-99.474 29.745 3.901 25.356c9.752 59.002 33.158 116.053 67.291 164.815l15.116 21.455 92.16-50.712c4.389 4.389 8.777 8.777 13.166 13.166l-49.737 93.135 20.48 15.116c48.274 35.109 104.838 58.514 163.352 68.267l25.844 4.389 29.257-100.45c5.851 0.488 12.19 0.488 18.042 0l29.745 100.45 25.356-4.389c58.514-9.752 115.078-33.646 163.352-68.267l20.48-15.116-50.225-93.135c4.389-3.901 8.777-8.29 12.678-12.678l92.16 50.712 15.116-21.455c34.621-48.762 58.027-105.813 67.291-165.303l3.901-25.356-99.474-29.745c0-2.926 0.488-6.339 0.488-9.752s0-6.339-0.488-9.752l99.474-29.745-3.901-25.356c-9.752-59.977-32.67-115.566-67.291-164.815l-15.116-21.455-92.16 50.225c-3.901-4.389-8.29-8.777-12.678-12.678l49.737-93.623-20.48-15.116c-48.762-35.109-103.863-58.514-162.865-68.267l-24.869-3.901zM563.2 218.331l28.77-97.524c32.67 8.29 63.39 20.968 92.16 38.522l-47.787 89.234 19.017 15.116c14.141 11.215 26.819 24.381 38.034 38.522l15.116 19.505 88.259-48.274c17.554 29.257 30.232 60.465 38.034 93.623l-96.549 28.77 3.901 33.158c0.975 6.339 1.95 12.19 1.95 18.53s-0.975 12.19-1.95 18.53l-3.901 33.158 96.549 28.77c-7.802 33.158-20.968 64.853-38.522 94.11l-88.259-48.274-15.116 19.505c-11.215 14.141-23.893 27.307-38.034 38.522l-19.017 15.116 47.787 89.234c-28.77 17.554-59.49 30.72-92.16 38.522l-28.282-97.524-33.158 3.901c-11.703 1.463-24.381 1.463-36.084 0l-33.158-3.413-28.77 97.524c-32.67-8.29-63.39-20.968-92.16-38.522l47.787-89.234-19.017-15.604c-14.141-11.215-26.819-24.381-38.034-38.522l-15.116-19.505-88.259 48.762c-17.554-29.257-30.232-60.952-38.034-94.11l96.549-29.257-3.413-24.869c0-0.488-2.438-17.554-2.438-26.331s2.438-26.331 2.438-26.331l3.413-24.869-97.036-29.257c7.802-33.158 20.968-64.366 38.034-93.623l88.259 48.274 15.116-19.505c11.215-14.141 23.893-27.307 38.034-38.522l19.017-15.116-47.787-89.234c28.77-17.554 59.49-30.72 92.16-38.522l28.77 97.524 33.158-3.901c11.703-1.95 24.381-1.95 36.084 0l33.646 3.413zM508.099 330.971c-69.242 0-125.318 56.564-125.318 126.293s56.076 126.781 125.318 126.781c69.242 0 125.318-56.564 125.318-126.293s-56.564-126.781-125.318-126.781zM508.099 525.531c-37.059 0-66.804-30.72-66.804-67.779s30.232-67.779 66.804-67.779 66.804 30.72 66.804 67.779-30.232 67.779-66.804 67.779z" />
<glyph unicode="&#xe929;" glyph-name="icoMenu_ConfiguracoesPessoais" d="M728.99 549.425c-84.358 0-159.939-39.497-209.189-100.45l-54.613 13.166c46.811 38.034 77.531 98.011 77.531 151.162v99.962c0 90.697-84.358 169.691-180.419 169.691h-22.43c-96.061 0-180.419-79.482-180.419-169.691v-100.45c0-53.15 30.72-113.615 78.507-151.65l-134.583-31.208c-46.324-15.116-76.069-53.638-76.069-97.036v-186.27h470.065c46.324-79.482 132.632-133.12 231.619-133.12 148.236 0 268.19 119.954 268.19 268.19 0 147.261-120.442 267.703-268.19 267.703zM217.966 612.815v100.45c0 51.688 53.15 111.665 121.905 111.665h21.943c68.754 0 121.905-59.977 121.905-111.665v-100.45c0-52.175-54.613-131.657-121.905-131.657h-21.943c-67.291 0-121.905 79.482-121.905 131.657zM85.333 204.678v128.244c0 18.53 13.653 34.133 33.646 40.96l121.417 28.282c32.183-18.53 64.853-27.794 98.011-27.794h25.356c33.158 0 66.316 9.265 98.499 28.282l24.381-5.851c-16.579-35.109-26.331-74.118-26.331-115.566 0-26.331 3.901-52.175 11.215-76.556h-386.194zM851.383 279.284c0-4.876-0.975-9.752-1.463-14.629h0.975l46.324-14.141c-4.389-26.819-14.629-51.2-29.745-72.655l-43.398 23.406c-6.339-7.802-12.678-14.629-20.48-20.48v0l23.406-43.398c-20.968-15.116-45.836-25.356-72.168-29.745l-14.141 47.299c-4.876-0.488-9.752-1.463-14.629-1.463s-9.752 0.975-14.629 1.463v0l-14.141-47.299c-26.819 4.389-51.2 14.629-72.168 29.745l23.406 43.398c-7.802 5.851-14.629 12.678-20.48 20.48v0l-43.398-23.406c-15.116 20.968-25.356 45.836-30.232 72.168l47.299 14.141c-0.488 4.876-1.463 9.752-1.463 14.629s0.975 9.752 1.463 14.629v0l-47.299 14.141c4.389 26.819 15.116 51.2 30.232 72.655l42.91-22.918 0.488-0.488c5.851 7.802 12.678 14.629 20.48 20.48l-0.488 0.488-22.918 42.91c20.968 15.116 45.836 25.844 72.655 30.232l14.141-46.324v-0.975c4.876 0.488 9.752 1.463 14.629 1.463s9.752-0.975 14.629-1.463v0.975l14.141 46.324c26.819-4.389 51.688-14.629 72.655-30.232l-22.918-42.91-0.488-0.488c7.802-5.851 14.629-12.678 20.48-20.48l0.488 0.488 42.91 22.918c15.116-20.968 25.844-45.836 30.232-72.655l-46.324-14.141h-0.975c-0.975-4.389 0-9.265 0-14.141zM769.95 277.333c0-25.584-20.74-46.324-46.324-46.324s-46.324 20.74-46.324 46.324c0 25.584 20.74 46.324 46.324 46.324s46.324-20.74 46.324-46.324z" />
<glyph unicode="&#xe92a;" glyph-name="icoMenu_ConfiguracoesSite" d="M861.623 478.232c0.488 6.339 1.463 12.678 1.463 19.505 0 224.305-182.857 407.162-407.162 407.162s-407.65-182.37-407.65-407.162c0-224.305 182.857-407.162 407.162-407.162 14.141 0 27.794 0.975 40.96 2.438 49.25-62.415 124.83-102.4 210.651-102.4 148.236 0 268.19 119.954 268.19 268.19 0.488 91.185-44.861 171.154-113.615 219.429zM751.909 684.495c31.695-50.712 51.2-109.714 53.638-172.617h-7.802c-28.282 10.24-58.514 16.091-90.21 16.091-7.314 0-14.141-0.488-21.455-0.975-3.413 44.373-10.728 85.821-22.43 122.392 30.72 9.265 59.977 20.968 88.259 35.109zM723.627 723.017c-24.381-11.703-49.737-21.455-76.556-29.257-25.844 60.465-59.977 106.301-90.697 139.459 66.316-19.992 123.855-58.514 167.253-110.202zM479.33 841.509c29.257-23.893 83.87-76.069 121.417-158.964-38.522-7.802-78.994-12.678-121.417-12.678v171.642zM479.33 622.080c48.274 0.488 94.598 5.851 138.484 15.116 11.215-35.109 19.017-75.093 21.455-118.979-7.314-1.95-14.629-4.389-21.943-6.827h-137.996v110.69zM534.43 464.091c-21.943-18.53-40.472-39.985-55.589-64.366v64.366h55.589zM380.343 840.046c-31.208-32.67-67.291-79.482-94.598-141.41-30.232 9.752-59.002 21.943-87.284 36.571 47.787 51.688 110.69 89.234 181.882 104.838zM167.741 696.686c32.183-17.554 65.829-31.695 100.937-42.91-14.141-41.935-22.918-89.234-25.356-142.385h-137.509c2.926 68.754 24.869 132.632 61.928 185.295zM106.789 464.091h137.021c2.438-49.737 10.728-94.11 23.406-133.12-32.67-10.728-63.878-23.893-94.11-39.497-36.084 49.25-59.977 108.251-66.316 172.617zM204.312 254.415c25.356 13.166 52.175 23.893 79.482 32.67 25.356-56.076 57.539-98.499 86.796-128.731-64.366 16.091-121.417 49.737-166.278 96.061zM432.030 165.669c-29.745 24.869-71.68 68.267-102.4 134.583 32.67 7.802 67.291 12.19 102.4 14.141v-148.724zM432.030 361.691c-40.96-2.438-80.945-7.314-119.467-17.067-11.215 34.621-19.017 74.118-21.455 118.979h140.922v-101.912zM432.030 511.39h-141.41c1.95 48.274 10.728 91.672 23.406 129.219 38.034-9.265 77.044-15.116 118.004-17.554v-111.665zM432.030 671.817c-34.621 2.438-67.779 6.827-99.962 14.141 30.232 64.853 70.217 110.69 99.962 137.996v-152.137zM829.928 257.341c0-4.876-0.975-9.752-1.463-14.629h0.975l46.324-14.141c-4.389-26.819-14.629-51.2-29.745-72.655l-43.398 23.893c-6.339-7.802-12.678-14.629-20.48-20.48v0l23.406-43.398c-20.968-15.116-45.836-25.356-72.168-29.745l-14.141 47.299c-4.876-0.488-9.752-1.463-14.629-1.463s-9.752 0.975-14.629 1.463v0l-14.141-47.299c-26.819 4.389-51.2 14.629-72.168 29.745l23.406 43.398c-7.802 5.851-14.629 12.678-20.48 20.48v0l-43.398-23.406c-15.116 20.968-25.356 45.836-30.232 72.168l47.299 14.141c-0.488 4.876-1.463 9.752-1.463 14.629s0.975 9.752 1.463 14.629v0l-47.299 14.141c4.389 26.819 15.116 51.2 30.232 72.655l42.91-22.918 0.488-0.488c5.851 7.802 12.678 14.629 20.48 20.48l-0.488 0.488-22.918 42.91c20.968 15.116 45.836 25.356 72.655 29.745l14.141-46.324v-0.975c4.876 0.488 9.752 1.463 14.629 1.463s9.752-0.975 14.629-1.463v0.975l14.141 46.324c26.819-4.389 51.688-14.629 72.655-29.745l-22.918-42.91-0.488-0.488c7.802-5.851 14.629-12.678 20.48-20.48l0.488 0.488 42.91 22.918c15.116-20.968 25.844-45.836 30.232-72.655l-46.324-14.141h-0.975c-0.975-4.876 0-9.265 0-14.629zM748.495 255.39c0-25.584-20.74-46.324-46.324-46.324s-46.324 20.74-46.324 46.324c0 25.584 20.74 46.324 46.324 46.324s46.324-20.74 46.324-46.324z" />
<glyph unicode="&#xe92b;" glyph-name="icoMenu_ConfiguracoesSMTP" d="M842.118 545.524v315.002h-813.836v-626.59h440.808c30.72-114.59 134.583-198.949 258.926-198.949 148.236 0 268.19 119.954 268.19 268.19-0.488 107.276-63.39 199.436-154.088 242.347zM784.091 565.516c-18.042 3.901-37.059 5.851-56.076 5.851-60.952 0-117.029-20.48-162.377-55.101l-36.571 30.72 255.025 213.577v-195.048zM742.156 802.011l-315.49-263.802-301.349 263.802h616.838zM86.796 758.126l240.396-210.651-240.396-210.651v421.303zM125.318 292.45l246.248 216.015 54.126-47.299 57.539 48.274 39.497-33.158c-39.497-46.811-63.39-106.789-63.39-172.617 0-3.413 0.488-7.314 0.488-10.728h-334.507zM850.408 301.714c0-4.876-0.975-9.752-1.463-14.629h0.975l46.324-14.141c-4.389-26.819-14.629-51.2-29.745-72.655l-43.398 23.406c-6.339-7.802-12.678-14.629-20.48-20.48v0l23.406-43.398c-20.968-15.116-45.836-25.356-72.168-29.745l-14.141 47.299c-4.876-0.488-9.752-1.463-14.629-1.463s-9.752 0.975-14.629 1.463v0l-14.141-47.299c-26.819 4.389-51.2 14.629-72.168 29.745l23.406 43.398c-7.802 5.851-14.629 12.678-20.48 20.48v0l-43.398-23.406c-15.116 20.968-25.356 45.836-30.232 72.168l47.299 14.141c-0.488 4.876-1.463 9.752-1.463 14.629s0.975 9.752 1.463 14.629v0l-47.299 14.141c4.389 26.819 15.116 51.2 30.232 72.655l42.91-22.918 0.488-0.488c5.851 7.802 12.678 14.629 20.48 20.48l-0.488 0.488-22.918 42.91c20.968 15.116 45.836 25.844 72.655 30.232l14.141-46.324v-0.975c4.876 0.488 9.752 1.463 14.629 1.463s9.752-0.975 14.629-1.463v0.975l14.141 46.324c26.819-4.389 51.688-14.629 72.655-30.232l-22.918-42.91-0.488-0.488c7.802-5.851 14.629-12.678 20.48-20.48l0.488 0.488 42.91 22.918c15.116-20.968 25.844-45.836 30.232-72.655l-46.324-14.141h-0.975c-0.975-4.389 0-8.777 0-14.141zM768.975 299.764c0-25.584-20.74-46.324-46.324-46.324s-46.324 20.74-46.324 46.324c0 25.584 20.74 46.324 46.324 46.324s46.324-20.74 46.324-46.324z" />
<glyph unicode="&#xe92c;" glyph-name="icoMenu_Conteudos" d="M129.707 830.293v-764.099h764.099v764.099h-764.099zM835.291 124.709h-647.070v647.070h647.070v-647.070zM271.116 640.61h241.859v-58.514h-241.859v58.514zM271.116 487.497h469.090v-58.514h-469.090v58.514zM271.116 389.973h469.090v-58.514h-469.090v58.514zM271.116 292.45h469.090v-58.514h-469.090v58.514z" />
<glyph unicode="&#xe92d;" glyph-name="icoMenu_Dashboard" d="M512 847.848c-219.429 0-399.848-180.419-399.848-399.848s180.419-399.848 399.848-399.848 399.848 180.419 399.848 399.848-180.419 399.848-399.848 399.848zM863.086 448c0-19.505 0-39.010-4.876-58.514l-321.829 78.019v326.705c180.419-9.752 326.705-160.914 326.705-346.21zM160.914 448c0 185.295 146.286 336.457 326.705 346.21v-360.838l9.752-9.752 170.667-292.571c-48.762-24.381-102.4-39.010-156.038-39.010-195.048 4.876-351.086 160.914-351.086 355.962zM711.924 160.305l-146.286 248.686 282.819-68.267c-24.381-73.143-73.143-136.533-136.533-180.419z" />
<glyph unicode="&#xe92e;" glyph-name="icoMenu_Fechar" d="M512 943.909c-274.042 0-495.909-221.867-495.909-495.909s221.867-495.909 495.909-495.909c274.042 0 495.909 221.867 495.909 495.909s-221.867 495.909-495.909 495.909zM304.762 323.657l207.238 287.208 207.238-287.208h-414.476z" />
<glyph unicode="&#xe92f;" glyph-name="icoMenu_Filter" d="M97.524 916.114v-190.171l282.819-312.076v-433.981l263.314 126.781v302.324l282.819 316.952v190.171h-828.952zM863.086 750.324l-282.819-316.952v-287.695l-136.533-63.39v355.962l-243.81 268.19h419.352v63.39h-458.362v82.895h702.171v-102.4z" />
<glyph unicode="&#xe930;" glyph-name="icoMenu_Grafico" d="M229.181 179.81l-43.886 43.886 277.943 277.943 117.029-97.524 214.552 253.562 48.762-39.010-258.438-302.324-121.905 97.524zM994.743 842.971h-965.486v-102.4h48.762v-687.543h863.086v687.543h48.762v102.4zM872.838 121.295h-721.676v619.276h726.552v-619.276z" />
<glyph unicode="&#xe931;" glyph-name="icoMenu_GrupoUsuarios" d="M928.914 251.49l-88.259 20.968c31.695 29.257 52.175 71.68 52.175 109.714v74.606c0 70.217-64.853 131.17-138.971 131.17h-16.579c-39.497 0-76.069-17.554-101.912-44.373l-28.282 6.827c31.695 29.257 52.175 71.68 52.175 109.714v74.606c0 69.73-64.853 131.17-138.971 131.17h-16.579c-74.118 0-138.971-61.44-138.971-131.17v-74.606c0-38.034 20.48-80.457 52.663-109.714l-28.77-6.827c-25.844 26.819-62.415 44.373-101.912 44.373h-16.091c-74.118 0-138.971-61.44-138.971-131.17v-74.606c0-38.034 20.48-80.457 52.663-109.714l-91.672-21.455c-36.571-12.19-59.977-42.423-59.977-77.044v-143.848h957.684v143.848c0.975 32.183-22.918 62.903-61.44 77.531zM736.792 534.309h16.579c48.274 0 85.333-41.935 85.333-77.531v-74.606c0-36.571-38.522-92.648-85.333-92.648h-16.579c-47.299 0-85.821 56.076-85.821 92.648v74.606c0.488 36.084 38.034 77.531 85.821 77.531zM417.89 734.72c0 36.084 37.547 77.531 85.333 77.531h16.579c48.274 0 85.333-41.935 85.333-77.531v-74.606c0-36.571-38.522-92.648-85.333-92.648h-16.579c-47.299 0-85.333 56.076-85.333 92.648v74.606zM428.617 497.737c23.893-13.653 48.762-20.48 73.63-20.48h19.017c24.869 0 49.737 6.827 74.118 20.48l9.752-2.438c-4.389-12.19-7.314-25.356-7.314-39.010v-74.606c0-6.827 1.463-13.653 2.438-20.48h-177.006c0.975 6.827 2.438 13.653 2.438 20.48v74.606c0 13.653-2.926 26.331-7.314 38.522l10.24 2.926zM184.808 456.777c0 36.084 37.547 77.531 85.333 77.531h16.579c48.274 0 85.333-41.935 85.333-77.531v-74.606c0-36.571-38.522-92.648-85.333-92.648h-16.091c-47.299 0-85.333 56.076-85.333 92.648v74.606zM471.040 83.749h-384.731v90.21c0 11.703 8.777 21.455 20.968 25.356l88.259 20.48c23.893-13.653 48.762-20.48 73.63-20.48h19.017c24.869 0 49.737 6.827 74.118 20.48l84.358-19.505c14.141-5.364 24.381-16.579 24.381-26.819v-89.722zM462.263 251.49l-88.259 20.968c11.215 10.24 20.48 22.918 28.282 35.596h218.941c8.29-13.166 17.554-25.356 28.77-36.084l-90.697-20.968c-21.455-7.314-37.547-20.968-47.787-37.547-10.728 16.091-27.307 29.745-49.25 38.034zM937.691 83.749h-384.731v90.21c0 11.703 8.777 21.455 20.968 25.356l88.259 20.48c23.893-13.653 48.762-20.48 73.63-20.48h19.017c24.869 0 49.737 6.827 74.118 20.48l84.358-19.505c14.141-5.364 24.381-16.579 24.381-26.819v-89.722z" />
<glyph unicode="&#xe932;" glyph-name="icoMenu_Info" d="M512-0.61c-248.686 0-448.61 199.924-448.61 448.61s199.924 448.61 448.61 448.61 448.61-199.924 448.61-448.61-199.924-448.61-448.61-448.61zM512 828.343c-209.676 0-380.343-170.667-380.343-380.343s170.667-380.343 380.343-380.343 380.343 170.667 380.343 380.343-170.667 380.343-380.343 380.343zM458.362 672.305c0 19.505 4.876 29.257 14.629 39.010s24.381 14.629 39.010 14.629c19.505 0 29.257-4.876 39.010-14.629s14.629-24.381 14.629-39.010c0-14.629-4.876-29.257-14.629-39.010s-19.505-14.629-39.010-14.629c-19.505 0-29.257 4.876-39.010 14.629s-14.629 19.505-14.629 39.010zM560.762 194.438h-97.524v355.962h97.524v-355.962z" />
<glyph unicode="&#xe933;" glyph-name="icoMenu_Layout" d="M807.985 132.023h58.514v-58.514h-58.514v58.514zM700.221 132.023h53.638v-58.514h-53.638v58.514zM270.141 132.023h53.638v-58.514h-53.638v58.514zM377.417 132.023h53.638v-58.514h-53.638v58.514zM485.181 132.023h53.638v-58.514h-53.638v58.514zM592.457 132.023h53.638v-58.514h-53.638v58.514zM157.501 132.023h58.514v-58.514h-58.514v58.514zM157.501 591.848h58.514v-57.539h-58.514v57.539zM157.501 246.613h58.514v-57.539h-58.514v57.539zM157.501 361.691h58.514v-57.539h-58.514v57.539zM157.501 476.77h58.514v-57.539h-58.514v57.539zM157.501 706.438h58.514v-57.539h-58.514v57.539zM157.501 822.491h58.514v-58.514h-58.514v58.514zM592.457 822.491h53.638v-58.514h-53.638v58.514zM270.141 822.491h53.638v-58.514h-53.638v58.514zM485.181 822.491h53.638v-58.514h-53.638v58.514zM700.221 822.491h53.638v-58.514h-53.638v58.514zM377.417 822.491h53.638v-58.514h-53.638v58.514zM807.985 822.491h58.514v-58.514h-58.514v58.514zM807.985 591.848h58.514v-57.539h-58.514v57.539zM807.985 476.77h58.514v-57.539h-58.514v57.539zM807.985 706.438h58.514v-57.539h-58.514v57.539zM807.985 361.691h58.514v-57.539h-58.514v57.539zM807.985 246.613h58.514v-57.539h-58.514v57.539zM601.234 579.657h58.514v-58.514h-58.514v58.514zM366.69 579.657h58.514v-58.514h-58.514v58.514zM483.718 579.657h58.514v-58.514h-58.514v58.514zM717.775 579.657h53.15v-58.514h-53.15v58.514zM250.149 579.657h58.514v-58.514h-58.514v58.514zM361.813 240.274h58.514v-58.514h-58.514v58.514zM361.813 357.303h58.514v-58.514h-58.514v58.514zM361.813 474.331h58.514v-58.514h-58.514v58.514z" />
<glyph unicode="&#xe934;" glyph-name="icoMenu_Leads" d="M999.619 477.257h-78.019c-14.629 199.924-180.419 360.838-380.343 375.467v82.895h-58.514v-82.895c-199.924-19.505-355.962-175.543-370.59-375.467h-87.771v-53.638h82.895c14.629-199.924 170.667-365.714 375.467-380.343v-78.019h53.638v78.019c204.8 14.629 370.59 175.543 380.343 380.343h78.019v53.638zM541.257 96.914v53.638h-58.514v-53.638c-170.667 14.629-307.2 151.162-316.952 326.705h48.762v53.638h-48.762c14.629 170.667 151.162 302.324 316.952 316.952v-48.762h53.638v48.762c170.667-9.752 312.076-146.286 326.705-321.829h-53.638v-53.638h53.638c-9.752-170.667-151.162-312.076-321.829-321.829zM682.667 360.229l-78.019 19.505c29.257 29.257 43.886 63.39 43.886 97.524v68.267c0 63.39-58.514 121.905-131.657 121.905h-14.629c-68.267 0-126.781-53.638-126.781-121.905v-68.267c0-34.133 19.505-73.143 43.886-102.4l-78.019-14.629c-34.133-9.752-58.514-39.010-58.514-73.143v-58.514h53.638v58.514c0 9.752 4.876 19.505 19.505 19.505l78.019 19.505c24.381-14.629 43.886-19.505 68.267-19.505h19.505c24.381 0 43.886 4.876 68.267 19.505l78.019-19.505c14.629-4.876 19.505-14.629 19.505-24.381v-53.638h53.638v58.514c0 29.257-24.381 58.514-58.514 73.143zM594.895 477.257c0-34.133-39.010-82.895-78.019-82.895h-14.629c-39.010 0-78.019 48.762-78.019 82.895v68.267c0 29.257 34.133 68.267 78.019 68.267h14.629c43.886 0 78.019-39.010 78.019-68.267v-68.267z" />
<glyph unicode="&#xe935;" glyph-name="icoMenu_Log" d="M129.707 830.293v-764.099h764.099v764.099h-764.099zM835.291 771.779v-310.613h-33.646l-39.497 129.707c-3.901 12.19-15.604 19.992-28.282 20.968-13.166 0-24.381-8.777-27.794-21.455l-81.432-290.621-78.019 350.11c-2.926 12.678-14.141 21.943-27.307 22.918-13.166 0.488-24.869-7.314-29.257-19.992l-93.135-277.943-61.44 197.486c-3.413 11.703-13.653 19.992-25.844 20.48-12.19 0.975-23.406-5.851-28.282-16.579l-53.15-115.078h-39.985v310.613h647.070zM188.221 124.709v277.943h58.514c11.215 0 21.943 6.339 26.331 17.067l29.257 62.415 65.829-211.627c3.901-12.19 15.116-20.48 27.794-20.48 0 0 0 0 0.488 0 12.678 0 23.893 7.802 27.794 19.992l88.747 264.29 80.457-360.838c2.926-13.166 14.141-22.43 27.794-22.918 0 0 0.488 0 0.975 0 13.166 0 24.381 8.777 28.282 21.455l85.821 305.737 16.579-54.613c3.901-12.19 15.116-20.968 27.794-20.968h55.101v-277.943h-647.558z" />
<glyph unicode="&#xe936;" glyph-name="icoMenu_MapaSite" d="M892.343 291.962v190.171h-351.086v121.905h131.657v316.952h-321.829v-316.952h121.905v-117.029h-341.333v-190.171h-126.781v-316.952h316.952v316.952h-126.781v126.781h282.819v-126.781h-126.781v-316.952h316.952v316.952h-131.657v126.781h292.571v-126.781h-126.781v-316.952h316.952v316.952h-126.781zM414.476 857.6h190.171v-190.171h-190.171v190.171zM258.438 38.4h-190.171v190.171h190.171v-190.171zM609.524 38.4h-195.048v190.171h190.171v-190.171zM955.733 38.4h-190.171v190.171h190.171v-190.171z" />
<glyph unicode="&#xe937;" glyph-name="icoMenu_MetaTags" d="M207.238 730.331l-170.179-275.505 169.691-288.67h780.678v564.175h-780.19zM928.427 224.183h-688.518l-135.070 229.669 134.583 217.966h689.006v-447.634zM168.716 448c0-39.985 32.67-72.168 72.655-72.168s72.655 32.183 72.655 72.168-32.67 72.168-72.655 72.168-72.655-32.183-72.655-72.168zM241.371 473.356c14.141 0 25.844-11.215 25.844-25.356s-11.703-25.356-25.844-25.356-25.844 11.215-25.844 25.356 11.703 25.356 25.844 25.356zM421.303 526.019h350.598v-58.514h-350.598v58.514zM421.303 428.495h350.598v-58.514h-350.598v58.514z" />
<glyph unicode="&#xe938;" glyph-name="icoMenu_Modulos" d="M774.339 59.368h-223.817v92.648l8.777 8.777c13.166 12.678 20.48 29.745 20.48 48.274 0 37.059-30.232 67.779-67.779 67.779s-67.779-30.232-67.779-67.779c0-19.505 8.777-38.522 24.381-51.688l10.728-8.777v-88.747h-226.743v189.196c-20.48-13.653-44.373-20.48-69.242-20.48-69.73 0-126.293 56.564-126.293 125.806s56.564 126.293 126.293 126.293c24.869 0 48.762-7.314 69.242-20.968v182.37h155.063c-13.166 19.992-20.48 43.886-20.48 68.267 0 69.73 56.564 126.293 126.293 126.293s126.293-56.564 126.293-126.293c0-24.381-6.827-48.274-19.992-68.267h155.063v-181.394c19.992 12.678 42.91 19.017 66.316 19.017 69.73 0 125.806-56.564 125.806-126.293s-56.564-125.806-125.806-125.806c-23.893 0-46.811 6.827-66.316 19.017v-187.246zM609.036 117.882h106.789v197.486h68.267l8.777-8.777c12.678-13.166 29.745-19.992 48.274-19.992 37.059 0 67.291 30.232 67.291 67.291s-30.232 67.779-67.291 67.779c-19.505 0-38.522-8.777-51.688-24.381l-9.265-10.728h-64.853v196.998h-163.84v70.217l9.265 8.777c13.166 12.678 19.992 29.745 19.992 48.274 0 37.059-30.232 67.779-67.291 67.779s-67.779-30.72-67.779-68.267c0-19.505 8.777-38.522 24.381-51.688l10.24-8.777v-66.316h-169.204v-197.486h-67.291l-8.777 10.728c-13.166 15.604-31.695 24.381-51.688 24.381-37.059 0-67.779-30.232-67.779-67.779s30.72-67.291 67.779-67.291c18.042 0 35.109 7.314 48.274 19.992l8.777 8.777h71.192v-197.486h110.202v3.901c-22.43 23.406-35.109 54.126-35.109 86.796 0 69.73 56.564 126.293 126.293 126.293s125.806-56.564 125.806-126.293c0-29.745-10.24-57.539-28.77-80.457v-9.752z" />
<glyph unicode="&#xe939;" glyph-name="icoMenu_Netdrive" d="M147.749 866.377v-837.242h728.503v837.242h-728.503zM820.663 85.211h-617.326v725.577h617.326v-725.577zM797.257 774.217h-570.514v-652.434h570.514v652.434zM738.743 715.703v-241.371h-453.486v241.371h453.486zM285.257 180.297v245.272h453.486v-245.272h-453.486zM610.011 639.147h-191.634v-93.623h191.147v93.623zM571.002 584.046h-113.615v16.091h113.615v-16.091zM418.377 261.73h191.147v93.623h-191.147v-93.623zM457.387 316.83h113.615v-16.091h-113.615v16.091z" />
<glyph unicode="&#xe93a;" glyph-name="icoMenu_Pagina" d="M43.886 916.114v-941.105h941.105v941.105h-941.105zM916.724 852.724v-336.457h-809.448v336.457h809.448zM107.276 43.276v409.6h814.324v-409.6h-814.324zM472.99 750.324h160.914v-63.39h-160.914v63.39zM287.695 248.076h453.486v-63.39h-453.486v63.39zM287.695 345.6h453.486v-63.39h-453.486v63.39zM404.724 818.59h-243.81v-258.438h243.81v258.438zM341.333 623.543h-117.029v131.657h117.029v-131.657zM472.99 652.8h268.19v-63.39h-268.19v63.39z" />
<glyph unicode="&#xe93b;" glyph-name="icoMenu_Paginas" d="M639.756 847.848h-479.33v-799.695h702.659v575.878l-223.33 223.817zM648.533 755.688l115.566-115.566h-115.566v115.566zM219.429 106.667v682.667h371.078v-207.238h214.552v-474.941h-585.63z" />
<glyph unicode="&#xe93c;" glyph-name="icoMenu_PainelAdministrativo" d="M926.476 788.846h-828.952v-89.234h43.886v-592.457h741.181v592.457h43.886v89.234zM824.076 165.669h-624.152v533.943h624.152v-533.943zM471.040 635.246h-208.701v-164.328h208.701v164.328zM412.526 529.92h-91.672v46.811h91.672v-46.811zM531.505 585.996h195.048v-64.853h-195.048v64.853zM471.040 251.977v164.328h-208.701v-164.328h208.701zM320.853 357.303h91.672v-47.299h-91.672v47.299zM531.505 366.568h195.048v-64.853h-195.048v64.853z" />
<glyph unicode="&#xe93d;" glyph-name="icoMenu_PropriedadesPagina" d="M785.067 499.2v185.783l-223.817 223.817h-478.842v-799.695h366.202c47.787-73.63 130.682-122.392 224.792-122.392 148.236 0 268.19 119.954 268.19 268.19 0 108.739-64.366 201.874-156.526 244.297zM570.027 817.128l115.566-115.566h-115.566v115.566zM405.211 255.39c0-30.72 5.364-59.977 14.629-87.284h-278.918v682.667h371.078v-207.726h214.552v-124.83c-17.067 3.413-34.621 5.364-52.663 5.364-148.236 0-268.678-119.954-268.678-268.19zM792.869 124.709h-238.933v57.051h238.933v-57.051zM792.869 222.232h-238.933v57.051h238.933v-57.051zM792.869 319.756h-238.933v57.051h238.933v-57.051z" />
<glyph unicode="&#xe93e;" glyph-name="icoMenu_Relatorio" d="M668.038 891.733v48.762h-331.581v-53.638h-263.314v-936.229h872.838v941.105h-277.943zM668.038 691.81v53.638h131.657v-648.533h-575.39v648.533h112.152v-53.638h331.581zM394.971 881.981h214.552v-131.657h-214.552v131.657zM892.343 14.019h-760.686v819.2h204.8v-29.257h-170.667v-765.562h692.419v765.562h-190.171v29.257h224.305v-819.2zM326.705 194.438h63.39v48.762h160.914v63.39h-160.914v58.514h87.771v63.39h-87.771v68.267h316.952v63.39h-316.952v34.133h-63.39z" />
<glyph unicode="&#xe93f;" glyph-name="icoMenu_RobotTxt" d="M639.756 847.848h-479.33v-799.695h702.659v575.878l-223.33 223.817zM648.533 755.688l115.566-115.566h-115.566v115.566zM219.429 106.667v682.667h371.078v-207.726h214.552v-474.941h-585.63zM565.638 403.627c18.53 22.43 30.232 49.25 33.646 78.994 4.389 40.96-7.314 80.945-33.646 113.128-29.745 36.084-74.606 57.051-122.392 57.051-35.109 0-69.73-11.703-97.524-33.158-33.158-25.844-53.638-62.415-58.514-103.375-4.389-40.96 7.314-80.945 33.646-113.128 30.232-36.571 74.606-57.539 122.392-57.539 23.893 0 47.299 5.851 68.754 16.091l116.541-142.385c6.827-8.29 16.579-12.678 26.331-12.678 7.802 0 15.116 2.438 21.455 7.802 14.629 12.19 16.579 33.646 4.876 48.274l-115.566 140.922zM374.004 446.050c-14.629 17.554-20.968 39.985-18.53 62.415s14.141 42.91 32.183 57.051c16.091 12.678 35.109 19.017 55.589 19.017 27.307 0 52.663-11.703 69.73-32.67 14.629-17.554 20.968-39.985 18.53-62.415-2.438-22.918-14.141-42.91-32.67-57.539-37.059-28.282-95.573-21.943-124.83 14.141z" />
<glyph unicode="&#xe940;" glyph-name="icoMenu_Sair" d="M512 943.909c-274.042 0-495.909-221.867-495.909-495.909s221.867-495.909 495.909-495.909c274.042 0 495.909 221.867 495.909 495.909s-221.867 495.909-495.909 495.909zM694.37 194.438l-182.37 182.37-182.37-182.37-74.606 74.606 182.37 182.37-182.37 182.37 74.606 74.606 182.37-182.37 182.37 182.37 74.606-74.606-182.37-182.37 182.37-182.37-74.606-74.606z" />
<glyph unicode="&#xe941;" glyph-name="icoMenu_Site" d="M53.638 906.362v-916.724h916.724v916.724h-916.724zM117.029 111.543v453.486h789.943v-453.486h-789.943zM658.286 628.419l248.686 131.657v-131.657h-248.686zM906.971 833.219l-380.343-204.8h-97.524l390.095 214.552h92.648v-9.752zM682.667 842.971l-390.095-214.552h-175.543v214.552h565.638zM165.79 799.086h156.038v-63.39h-156.038v63.39zM243.81 467.505h185.295v-63.39h-185.295v63.39zM560.762 467.505h234.057v-63.39h-234.057v63.39zM560.762 369.981h234.057v-63.39h-234.057v63.39z" />
<glyph unicode="&#xe942;" glyph-name="icoMenu_Sites" d="M512 855.162c-224.305 0-407.162-182.857-407.162-407.162 0-224.792 182.857-407.162 407.162-407.162s407.162 182.37 407.162 407.162c0 224.305-182.857 407.162-407.162 407.162zM535.406 572.343c48.762 0.488 94.598 5.851 138.484 15.116 12.19-37.059 19.992-78.994 22.43-125.806h-160.914v110.69zM535.406 619.642v172.13c29.257-23.893 83.87-76.069 121.417-158.964-38.522-8.29-78.507-13.166-121.417-13.166zM488.107 774.217v-152.137c-34.133 1.95-67.779 6.827-99.962 14.141 30.232 64.853 70.217 110.69 99.962 137.996zM488.107 573.318v-111.665h-140.922c1.95 48.274 10.728 91.185 23.406 129.219 38.034-9.265 77.044-15.116 117.516-17.554zM299.886 461.653h-137.509c2.438 68.754 24.869 132.145 61.44 185.295 32.183-17.554 65.829-31.695 100.937-43.398-13.653-41.448-22.918-88.747-24.869-141.897zM299.886 413.867c2.438-50.225 10.728-94.11 23.406-133.12-32.67-10.728-63.878-23.893-94.11-39.497-36.084 49.25-59.977 108.251-66.316 172.617h137.021zM347.185 413.867h140.922v-102.4c-40.96-2.438-80.945-7.314-119.467-17.067-11.215 35.109-19.017 74.606-21.455 119.467zM488.107 264.655v-149.211c-29.745 24.869-71.192 68.267-102.4 134.583 33.158 7.802 67.291 12.19 102.4 14.629zM535.406 100.328v166.766c43.398-0.488 84.358-5.364 123.368-13.166-38.522-85.821-95.573-134.095-123.368-153.6zM535.406 314.392v99.474h160.427c-1.95-43.398-9.752-81.432-20.48-115.566-43.886 10.24-90.697 15.604-139.947 16.091zM743.619 413.867h117.029c-5.851-58.514-25.844-113.128-57.051-159.939-26.331 12.678-53.638 23.406-81.92 32.183 11.703 37.547 19.992 80.457 21.943 127.756zM743.619 461.653c-1.95 51.2-10.728 97.524-23.893 137.996 31.208 9.265 60.465 20.48 88.259 34.621 31.695-50.225 51.2-109.714 53.638-172.617h-118.004zM780.19 673.28c-24.381-11.703-49.737-21.455-76.556-29.257-25.844 59.977-59.977 106.301-90.697 139.459 65.829-19.992 123.855-59.002 167.253-110.202zM436.907 790.309c-31.208-32.67-67.291-79.482-94.598-141.41-30.232 9.752-59.49 21.943-87.284 36.571 47.787 51.688 110.69 88.747 181.882 104.838zM260.876 204.19c25.356 13.166 52.175 23.893 79.482 32.67 24.869-56.076 57.051-98.011 86.309-128.244-63.878 16.091-120.93 49.737-165.79 95.573zM624.64 116.419c27.794 30.232 58.027 71.68 80.945 125.318 23.893-6.827 46.811-15.604 68.754-25.844-40.472-44.861-91.672-79.482-149.699-99.474z" />
<glyph unicode="&#xe943;" glyph-name="icoMenu_Temas" d="M863.086 526.994c-6.339 196.023-160.914 353.524-351.086 353.524s-345.234-157.989-351.086-354.011c-7.802-9.265-11.703-20.48-11.215-31.208l1.463-30.72c1.463-27.794 29.257-47.299 66.316-48.762v-400.335h585.63v399.848c40.96 1.95 71.68 23.893 71.68 52.663v30.72c-0.488 10.24-4.389 19.992-11.703 28.282zM512.488 841.509c161.402 0 294.522-128.244 310.613-292.571-3.413 0.975-6.827 1.463-10.24 1.95-16.579 156.038-144.823 277.943-300.373 277.943-156.038 0-284.77-122.392-300.861-279.406-3.413-0.975-6.827-0.975-10.24-1.95 16.091 164.815 149.211 294.034 311.101 294.034zM771.901 561.128h-519.314c20.968 129.219 129.219 228.206 259.901 228.206 130.194 0 238.446-98.987 259.413-228.206zM198.461 467.017l-1.95 27.307c0.975 1.95 8.777 6.339 20.968 7.314v-38.522c-11.215 0.975-18.042 3.901-19.017 3.901zM275.017 73.509v124.343c38.522-14.629 70.217 37.059 60.952 75.093-13.653 57.051-10.728 86.796 17.554 97.524 21.943 8.29 39.497-8.777 19.992-69.242-9.752-30.72 19.992-64.853 41.448-60.952 20.48 3.901 56.564 22.43 38.522 74.118-16.091 46.324-10.728 129.219 26.819 126.781 15.116-0.975 32.183-21.455 29.745-56.076-1.95-25.356-1.95-84.358 45.349-72.168 20.48 5.364 38.522 33.646 23.893 73.143-20.968 55.101 3.413 87.284 31.695 93.623 67.291 14.141 38.522-60.952 79.97-59.002 39.010 1.95 34.621 39.497 54.126 60.465v-408.625h-470.065zM803.109 464.579v37.547c13.653-0.975 21.943-4.876 22.43-3.413l0.975-26.331c-1.95-1.95-9.752-6.827-23.406-7.802z" />
<glyph unicode="&#xe944;" glyph-name="icoMenu_Usuario" d="M867.962 42.789h-711.924v203.337c0 46.811 32.183 88.259 82.408 104.838l155.55 36.084c-55.101 41.448-91.185 109.714-91.185 169.691v111.665c0 98.499 92.16 185.295 196.998 185.295h24.381c104.838 0 196.998-86.309 196.998-185.295v-111.665c0-59.977-35.596-127.756-89.722-169.204l152.625-36.084c52.175-19.505 84.846-61.928 84.846-105.326v-203.337zM214.552 101.303h594.895v144.823c0 19.017-18.53 39.985-43.398 49.737l-131.17 30.72c-35.596-20.968-72.168-31.208-108.739-31.208h-28.282c-36.571 0-72.655 10.24-108.251 30.72l-136.046-31.695c-23.893-7.802-39.497-26.331-39.497-48.274v-144.823zM499.81 794.697c-78.019 0-138.484-68.267-138.484-126.781v-111.665c0-65.829 65.341-148.724 138.484-148.724h24.381c73.143 0 138.484 83.383 138.484 148.724v112.152c0 58.514-60.465 126.781-138.484 126.781h-24.381z" />
<glyph unicode="&#xe945;" glyph-name="icoNovo_Excluir---Copia" d="M181.882 606.964v-647.558h659.749v647.558h-659.749zM398.385 57.905h-73.143v435.931h73.143v-435.931zM681.204 57.905h-73.143v435.931h73.143v-435.931zM592.945 841.996v94.598h-161.89v-94.598h-288.67v-112.64h739.23v112.64z" />
<glyph unicode="&#xe946;" glyph-name="icoTool_Ajuda" d="M582.217-46.933h-199.924v199.924h199.924v-199.924zM729.966 443.611c-49.25-47.787-108.739-72.168-176.030-72.168-0.488 0-0.975 0-1.95 0l-2.926-145.31h-134.095l-1.463 296.96 22.43-2.926c22.43-2.926 40.96-4.389 59.49-4.389 46.811 0 92.648 17.554 116.053 44.373 16.091 18.53 25.356 59.002 25.356 111.665 0 40.96-11.215 71.68-34.621 93.623-23.893 22.43-53.15 33.158-90.21 33.158-45.349 0-77.531-12.19-98.499-37.059-22.43-26.331-32.67-58.027-32.67-97.036 0-8.777 0-19.505 0.488-31.208l0.975-20.48h-161.89l-0.488 19.017c-0.488 11.703-0.488 21.943-0.488 30.72 0 95.086 29.257 166.766 86.796 213.090 56.076 44.861 123.855 67.779 201.387 67.779 93.135 0 166.766-25.844 218.453-76.556 52.175-50.712 78.507-118.491 78.507-200.899 0-69.242-19.505-169.204-74.606-222.354z" />
<glyph unicode="&#xe947;" glyph-name="icoTool_Editar" d="M29.257 596.236l334.507 334.507 460.312-460.312-334.507-334.507-460.312 460.312zM550.522 76.922l-0.975-0.975-0.975 0.975 334.507 334.507 0.975-0.975-0.975-0.975 111.665-444.709-444.221 112.152z" />
<glyph unicode="&#xe948;" glyph-name="icoTool_Excluir" d="M181.882 606.964v-647.558h659.749v647.558h-659.749zM398.385 57.905h-73.143v435.931h73.143v-435.931zM681.204 57.905h-73.143v435.931h73.143v-435.931zM592.945 841.996v94.598h-161.89v-94.598h-288.67v-112.64h739.23v112.64z" />
<glyph unicode="&#xe949;" glyph-name="icoTool_Finalizar" d="M887.467 774.705l-487.619-468.114-258.438 273.067-112.152-107.276 355.962-380.343 9.752-4.876 599.771 575.39z" />
<glyph unicode="&#xe94a;" glyph-name="icoMenu_Blog" d="M453.486-68.876l-117.029 165.79h-146.286c-78.019 0-146.286 63.39-146.286 146.286v414.476c0 78.019 63.39 146.286 146.286 146.286h531.505c78.019 0 146.286-63.39 146.286-146.286v-414.476c0-78.019-63.39-146.286-146.286-146.286h-146.286l-121.905-165.79zM190.171 735.695c-43.886 0-78.019-34.133-78.019-78.019v-414.476c0-43.886 34.133-78.019 78.019-78.019h185.295l82.895-117.029 82.895 117.029h185.295c43.886 0 78.019 34.133 78.019 78.019v414.476c0 43.886-34.133 78.019-78.019 78.019h-536.381zM585.143 482.133c14.629 19.505 19.505 39.010 19.505 63.39 0 68.267-63.39 121.905-136.533 121.905h-97.524c-24.381 0-48.762-19.505-48.762-43.886v-336.457c0-19.505 14.629-39.010 39.010-43.886h131.657c82.895 0 156.038 58.514 156.038 136.533-4.876 34.133-24.381 73.143-63.39 102.4zM463.238 506.514h-43.886v68.267h43.886c24.381 0 39.010-14.629 39.010-34.133 4.876-19.505-14.629-34.133-39.010-34.133zM419.352 418.743h68.267c29.257 0 58.514-19.505 58.514-48.762 0-24.381-24.381-48.762-53.638-48.762h-73.143v97.524zM863.086 764.952l-39.010 43.886 87.771 73.143 39.010-43.886zM711.924 964.876h58.514v-126.781h-58.514v126.781zM906.971 628.419l-4.876 63.39 117.029 14.629 9.752-58.514z" />
</font>
</defs>
</svg>
