<?xml version="1.0" standalone="no"?>
<!DOCTYPE svg PUBLIC "-//W3C//DTD SVG 20010904//EN"
 "http://www.w3.org/TR/2001/REC-SVG-20010904/DTD/svg10.dtd">
<svg version="1.0" xmlns="http://www.w3.org/2000/svg"
 width="216.000000pt" height="216.000000pt" viewBox="0 0 216.000000 216.000000"
 preserveAspectRatio="xMidYMid meet">
<metadata>
Created by potrace 1.14, written by Peter Selinger 2001-2017
</metadata>
<g transform="translate(0.000000,216.000000) scale(0.100000,-0.100000)"
fill="#000000" stroke="none">
<path d="M918 1963 l-48 -35 0 -79 c0 -43 3 -79 6 -79 3 0 14 5 25 10 18 10
19 7 19 -42 l0 -53 -89 -62 c-49 -35 -92 -63 -95 -63 -3 0 -6 22 -6 49 0 39 5
53 20 64 19 13 21 23 18 96 l-3 82 -95 -69 -95 -68 -3 -85 c-2 -67 0 -81 10
-71 6 6 16 12 20 12 4 0 8 -133 8 -295 0 -162 2 -295 5 -295 7 0 675 479 703
503 14 14 22 32 22 54 0 34 8 41 27 22 9 -9 13 -3 18 23 6 32 1 126 -7 132 -1
1 -44 32 -95 69 -51 37 -95 67 -98 67 -3 0 -5 -36 -5 -81 0 -70 3 -83 21 -97
16 -14 20 -26 17 -68 l-3 -52 -92 67 -92 66 -1 54 0 53 25 -16 25 -16 0 85 0
85 -47 35 c-27 19 -52 34 -58 34 -5 0 -31 -16 -57 -36z"/>
<path d="M1490 1551 c0 -70 3 -82 20 -93 17 -11 20 -23 20 -83 l-1 -70 -208
-145 c-115 -80 -207 -148 -205 -151 2 -4 96 -72 209 -150 l205 -144 0 -237 c0
-131 3 -238 6 -238 3 0 28 12 55 28 l49 27 0 538 c0 529 0 538 19 527 11 -5
22 -10 25 -10 3 0 6 31 6 69 l0 69 -67 48 c-38 26 -83 59 -100 72 l-33 24 0
-81z"/>
<path d="M757 767 l-117 -82 0 -203 0 -203 83 -39 c45 -21 120 -48 167 -60 91
-24 259 -37 331 -26 l44 6 -5 213 -5 212 -175 123 c-96 67 -182 127 -191 132
-12 7 -44 -10 -132 -73z"/>
</g>
</svg>
